<?xml version="1.0" encoding="utf-8" ?>
<svg baseProfile="full" height="200mm" version="1.1" viewBox="0,0,200,200" width="200mm" xmlns="http://www.w3.org/2000/svg" xmlns:ev="http://www.w3.org/2001/xml-events" xmlns:xlink="http://www.w3.org/1999/xlink"><defs /><rect fill="#1a1a1a" height="200" width="200" x="0" y="0" /><text alignment-baseline="middle" fill="#e1ed5e" style="dominant-baseline: central; font-size:9.0px; font-family:Arial;" text-anchor="middle" x="100.0" y="100.0">2023</text><line stroke="#e1ed5e" stroke-width="0.3" x1="100.0" x2="100.0" y1="15.0" y2="10.0" /><path d="M 100.0 14.0 a86.0,86.0 0 0,1 42.46469731375804,11.215312516191453" fill="none" id="id1" stroke="none" /><text fill="#e1ed5e" style="font-size:6.75px; font-family:Arial;" text-anchor="middle"><textPath startOffset="22.20632615414155" xlink:href="#id1">January</textPath></text><line stroke="#e1ed5e" stroke-width="0.3" x1="143.23703022742887" x2="145.7803849466894" y1="26.81831364943548" y2="22.513508569990506" /><path d="M 143.74570117128098 25.957352633546492 a86.0,86.0 0 0,1 28.547481713284135,27.462654790039103" fill="none" id="id2" stroke="none" /><text fill="#e1ed5e" style="font-size:6.75px; font-family:Arial;" text-anchor="middle"><textPath startOffset="19.985693538727396" xlink:href="#id2">February</textPath></text><line stroke="#e1ed5e" stroke-width="0.3" x1="172.23445277983987" x2="176.4835382374775" y1="55.19839476539836" y2="52.563006222186495" /><path d="M 173.08426987136738 54.67131705675599 a86.0,86.0 0 0,1 12.851231095245387,41.99856678651699" fill="none" id="id3" stroke="none" /><text fill="#e1ed5e" style="font-size:6.75px; font-family:Arial;" text-anchor="middle"><textPath startOffset="22.20632615414155" xlink:href="#id3">March</textPath></text><line stroke="#e1ed5e" stroke-width="0.3" x1="184.98032266829074" x2="189.97916517819016" y1="98.17113171792111" y2="98.06355123074" /><path d="M 185.9800911702706 98.14961562048488 a86.0,86.0 0 0,1 -9.607161424134198,41.387399972396054" fill="none" id="id4" stroke="none" /><text fill="#e1ed5e" style="font-size:6.75px; font-family:Arial;" text-anchor="middle"><textPath startOffset="21.466115282336823" xlink:href="#id4">April</textPath></text><line stroke="#e1ed5e" stroke-width="0.3" x1="174.80103733775053" x2="179.2010983576182" y1="140.37084112569926" y2="142.7455964860345" /><path d="M 175.68104954172406 140.8457921977663 a86.0,86.0 0 0,1 -30.038265399797805,32.042727171017184" fill="none" id="id5" stroke="none" /><text fill="#e1ed5e" style="font-size:6.75px; font-family:Arial;" text-anchor="middle"><textPath startOffset="22.206326154141568" xlink:href="#id5">May</textPath></text><path d="M 116.93607887273984 112.41649034213515 l 7.07293646702053 5.185441564909798 a29.77013309417839,29.77013309417839 0 0,0 -0.3065455176477931,0.4106678158417612 l -6.982629682677644 -5.306422260260875" fill="#ff3905" stroke="none" /><path d="M 116.71984013943494 112.70617746262583 l 7.631262999723867 5.799348625933619 a30.58481191552931,30.58481191552931 0 0,0 -0.32215009011346063,0.416422417740811 l -7.530306092392338 -5.929849037787683" fill="#ff4506" stroke="none" /><path d="M 116.498646956653 112.99209946851258 l 6.905655252558641 5.4379586503194695 a29.789736557472875,29.789736557472875 0 0,0 -0.32071075429758644,0.40013597751902713 l -6.811026586206201 -5.556022461416747" fill="#ff3905" stroke="none" /><path d="M 116.27256486870786 113.27417163493432 l 7.894833046057255 6.440126048232305 a31.18840578021105,31.18840578021105 0 0,0 -0.34292988817114595,0.4130811417301674 l -7.782807157992566 -6.575068447076243" fill="#ff4e07" stroke="none" /><path d="M 115.80600337817218 113.82643327865902 l 23.171341579837133 20.26932429820121 a51.78565539525087,51.78565539525087 0 0,0 -0.5926773328290157,0.6658792663626664 l -22.819005397359778 -20.66517773430474" fill="#9dff22" stroke="none" /><path d="M 115.32070863581623 114.36230785411682 l 7.27701222565887 6.821792146007764 a30.974555379350093,30.974555379350093 0 0,0 -0.3679975543379667,0.3858439644885241 l -7.158508119941939 -6.946043227078795" fill="#ff4b07" stroke="none" /><path d="M 115.07121518719521 114.62390073753431 l 8.015253911177481 7.777360758725065 a32.168331819569225,32.168331819569225 0 0,0 -0.38902140199542506,0.39407662635087837 l -7.880191884126521 -7.9141778790566075" fill="#ff5d08" stroke="none" /><path d="M 114.81725581225074 114.88116024355365 l 7.288414308556897 7.319848062376768 a31.329625297630976,31.329625297630976 0 0,0 -0.38542905655673737,0.37722345390382744 l -7.161335299624365 -7.444221619203168" fill="#ff5007" stroke="none" /><path d="M 114.55890576462653 115.13401014063108 l 5.76696341207301 5.99476939888004 a29.318360844657878,29.318360844657878 0 0,0 -0.3667087042043466,0.34674596862845747 l -5.662918873477856 -6.093150004254419" fill="#ff3204" stroke="none" /><path d="M 114.29624159901734 115.38237550388516 l 6.171934790722649 6.640837585097494 a30.066063252182623,30.066063252182623 0 0,0 -0.382125991798348,0.3490630333879738 l -6.0567092494574375 -6.746093385072052" fill="#ff3d05" stroke="none" /><path d="M 114.0293411484842 115.62618273729858 l 4.65106225223299 5.180453444443946 a27.96200243925537,27.96200243925537 0 0,0 -0.3609197423430865,0.3184697091988903 l -4.561200156983316 -5.259746295415125" fill="#ff1d03" stroke="none" /><path d="M 113.75828350139079 115.86535959552629 l 6.216313818155247 7.168340009398871 a30.488290466471632,30.488290466471632 0 0,0 -0.3994467270225346,0.3404171665802787 l -6.092001614555665 -7.274281566202096" fill="#ff4406" stroke="none" /><path d="M 113.48314897796784 116.09983520530334 l 6.279156964485132 7.497758314592178 a30.779784861063064,30.779784861063064 0 0,0 -0.409121780556695,0.33667937252914815 l -6.1491650553837465 -7.604732805978505" fill="#ff4806" stroke="none" /><path d="M 113.20401910651253 116.32954008644616 l 6.6285627879896 8.197608689358404 a31.54223092415286,31.54223092415286 0 0,0 -0.42513295838383475,0.33775133387908246 l -6.486472336888415 -8.310493937242613" fill="#ff5307" stroke="none" /><path d="M 112.92097659922987 116.55440617244103 l 3.9417469504516305 5.0501817370868345 a27.406379991773836,27.406379991773836 0 0,0 -0.37438586074431585,0.28706311338665386 l -3.854232361213821 -5.11728419230086" fill="#ff1502" stroke="none" /><path d="M 112.63410532772338 116.77436683061366 l 4.8018597382303305 6.375453950148806 a28.981495474916056,28.981495474916056 0 0,0 -0.40106943641699877,0.296701580845255 l -4.691405331394767 -6.45716547973383" fill="#ff2d04" stroke="none" /><path d="M 112.34349029814194 116.9893568818739 l 10.770868575097024 14.82482877453465 a39.32449612011973,39.32449612011973 0 0,0 -0.5510535502030383,0.39316207669066067 l -10.5140876970451 -15.00803511306953" fill="#ffc212" stroke="none" /><path d="M 112.04921762599082 117.19931262002967 l 4.7606570155683805 6.7954643055726995 a29.29711940062291,29.29711940062291 0 0,0 -0.41552120542175686,0.2857992740137236 l -4.642978925523741 -6.876404368951517" fill="#ff3204" stroke="none" /><path d="M 111.7513745106137 117.40417183066458 l 5.450237659236496 8.071981082182127 a30.739710936843345,30.739710936843345 0 0,0 -0.4410786980328924,0.2923229097699266 l -5.31048426246364 -8.164602013043373" fill="#ff4706" stroke="none" /><path d="M 111.45004920935366 117.60387380957326 l 4.554586499696698 7.002447284676128 a29.353354186067264,29.353354186067264 0 0,0 -0.4259286281646003,0.27184780261020636 l -4.433376069485167 -7.079809516110143" fill="#ff3304" stroke="none" /><path d="M 111.1453310114006 117.79835938074945 l 4.238780827829398 6.769053734946681 a28.98669840252965,28.98669840252965 0 0,0 -0.4251669539651453,0.2611722688726685 l -4.121634673931944 -6.841014470647727" fill="#ff2d04" stroke="none" /><line stroke="#e1ed5e" stroke-width="0.3" x1="143.8653032363475" x2="146.44561519142675" y1="172.8068346515853" y2="177.08958963109032" /><path d="M 144.38136562736335 173.6633856474863 a86.0,86.0 0 0,1 -40.68145358897372,12.25698825130547" fill="none" id="id6" stroke="none" /><text fill="#e1ed5e" style="font-size:6.75px; font-family:Arial;" text-anchor="middle"><textPath startOffset="21.466115282336833" xlink:href="#id6">June</textPath></text><path d="M 110.8373102113329 117.98757091392108 l 4.192007239498705 6.9578175785077345 a29.123062855339775,29.123062855339775 0 0,0 -0.43162061212579256,0.2550090655723214 l -4.07161875634453 -7.028945216373805" fill="#ff2f04" stroke="none" /><path d="M 110.5260780823613 118.17145234162733 l 4.6110420025418195 7.9601661073403545 a30.199236533846435,30.199236533846435 0 0,0 -0.45205558297395243,0.25668895793860885 l -4.473337652646668 -8.038358231073591" fill="#ff3f05" stroke="none" /><path d="M 110.21172684928248 118.3499491758327 l 4.755291500844904 8.545014828995773 a30.77906312924533,30.77906312924533 0 0,0 -0.4651701194893921,0.25364783831390836 l -4.6074985694868635 -8.625603319069453" fill="#ff4806" stroke="none" /><path d="M 109.89434966115114 118.52300852407294 l 3.864725794811219 7.23507368266629 a29.20258475498361,29.20258475498361 0 0,0 -0.44542159841725326,0.2330235283670838 l -3.73961329386747 -7.30052662997809" fill="#ff3004" stroke="none" /><path d="M 109.57404056367764 118.69057910512821 l 3.6892905354095094 7.202285820208063 a29.09220524274022,29.09220524274022 0 0,0 -0.4476682114801243,0.22447013467575805 l -3.5647684162466247 -7.264723795793123" fill="#ff2f04" stroke="none" /><path d="M 109.2508944713604 118.85261126421891 l 5.905859157440881 12.03568662696971 a34.40660005259148,34.40660005259148 0 0,0 -0.5339369092534328,0.25632216373418804 l -5.697809580187215 -12.135563067203458" fill="#ff7d0b" stroke="none" /><path d="M 108.92500713936063 119.00905698771935 l 3.71900401150012 7.920975085878428 a29.750590674272267,29.750590674272267 0 0,0 -0.46542958006294227,0.2136558923275603 l -3.582106435669758 -7.983818048540063" fill="#ff3905" stroke="none" /><path d="M 108.59647513512805 119.15986991738527 l 2.771410466716472 6.176934522032637 a27.77017252841493,27.77017252841493 0 0,0 -0.4378157135878759,0.19192554261912226 l -2.6646740784708425 -6.223724617946214" fill="#ff1a02" stroke="none" /><path d="M 107.93186726928326 119.44442032107085 l 3.034296597674295 7.438366833552113 a29.033446146775734,29.033446146775734 0 0,0 -0.464367745265498,0.1847815092991922 l -2.9058077763669306 -7.489495187257374" fill="#ff2e04" stroke="none" /><path d="M 107.59598834532513 119.57807347666477 l 5.691003058518752 14.668120983120739 a36.73344491799354,36.73344491799354 0 0,0 -0.5914605533731314,0.22363977201796004 l -5.4376722843853456 -14.76390900524533" fill="#ff9e0e" stroke="none" /><path d="M 107.2578585660854 119.70592522655815 l 3.0022401185009486 8.151429068045662 a29.68672789838132,29.68672789838132 0 0,0 -0.48103870536793836,0.1724833652075772 l -2.8614818525032755 -8.2018999742932" fill="#ff3805" stroke="none" /><path d="M 106.91757812671514 119.82793768551818 l 4.6012171553317724 13.188524272840864 a34.968119837896296,34.968119837896296 0 0,0 -0.5700307525138139,0.19338538056008409 l -4.373516669880732 -13.26577264029907" fill="#ff850c" stroke="none" /><path d="M 106.2309692047433 120.05430185196036 l 2.433109601815166 7.830934930084374 a29.200217327221317,29.200217327221317 0 0,0 -0.481282188987374,0.14500637552389864 l -2.2979524383875463 -7.871656674713998" fill="#ff3004" stroke="none" /><path d="M 105.88484417918355 120.15858648285463 l 2.8250275568119707 9.677157217158898 a31.08107893542936,31.08107893542936 0 0,0 -0.5148637439674455,0.14550563688013327 l -2.6580326447399196 -9.72435164737755" fill="#ff4d07" stroke="none" /><path d="M 105.53697534728816 120.25689768951611 l 3.6271307268413895 13.26977481958842 a34.756562109487234,34.756562109487234 0 0,0 -0.5784643158229319,0.1527776833891879 l -3.3981759682069606 -13.330243852281193" fill="#ff820c" stroke="none" /><path d="M 105.18746579009965 120.34920634021253 l 2.389834699775987 9.374758580105677 a30.67457535644425,30.67457535644425 0 0,0 -0.5127718533703142,0.12602684588121316 l -2.2281095616624618 -9.414506684300921" fill="#ff4706" stroke="none" /><path d="M 104.83641907484287 120.43548508189849 l 1.9081286952091787 8.06248070770346 a29.285200678292057,29.285200678292057 0 0,0 -0.4915449123849733,0.11187402172598099 l -1.7690636334313434 -8.094131463007125" fill="#ff3204" stroke="none" /><path d="M 103.41894727170886 120.7198165907248 l 1.4536222888550812 8.809374589217597 a29.92849922505507,29.92849922505507 0 0,0 -0.5090184085338075,0.07949820692068596 l -1.3017680167127565 -8.833091103485389" fill="#ff3b05" stroke="none" /><path d="M 102.70371172650421 120.8252237178851 l 1.333015722709101 10.267496483720304 a31.353666739865567,31.353666739865567 0 0,0 -0.5358081514154183,0.06487890527154326 l -1.1560801482423027 -10.2889209177172" fill="#ff5107" stroke="none" /><path d="M 101.26447882468166 120.96189622390904 l 1.3665271873535216 22.65360283567129 a43.69478173479777,43.69478173479777 0 0,0 -0.7511589311586073,0.038826336697844646 l -0.9763801877814348 -22.673768979131335" fill="#fffd17" stroke="none" /><path d="M 100.90346689309514 120.98055641714683 l 0.3697482850211656 8.586396262350833 a29.59435364459646,29.59435364459646 0 0,0 -0.5091351274826562,0.017535643230913323 l -0.22189280586385704 -8.59148870400784" fill="#ff3605" stroke="none" /><line stroke="#e1ed5e" stroke-width="0.3" x1="102.19456741930631" x2="102.32365962044197" y1="184.97166512339345" y2="189.96999836594603" /><path d="M 102.22038585953345 185.97133177190398 a86.0,86.0 0 0,1 -42.740103519485714,-10.115201625700543" fill="none" id="id7" stroke="none" /><text fill="#e1ed5e" style="font-size:6.75px; font-family:Arial;" text-anchor="middle"><textPath startOffset="22.20632615414155" xlink:href="#id7">July</textPath></text><path d="M 100.54218724476979 120.99299961872073 l 0.20218281017866674 7.8283355020547605 a28.830945959554484,28.830945959554484 0 0,0 -0.49622219277662405,0.008542915061745131 l -0.06740092750937476 -7.830655894395665" fill="#ff2b04" stroke="none" /><path d="M 100.18074693466247 120.99922214144158 l 0.07699663745846673 8.945487773575914 a29.94581913462239,29.94581913462239 0 0,0 -0.5154871442418382,0.0 l 0.07699663745846057 -8.945487773575914" fill="#ff3c05" stroke="none" /><path d="M 99.81925306533755 120.99922214144158 l -0.05239800073686696 6.087612270137656 a27.087837769028653,27.087837769028653 0 0,0 -0.4662207849226104,-0.008026413617915139 l 0.15717847555214529 -6.085808379240581" fill="#ff1001" stroke="none" /><path d="M 99.09653310690486 120.98055641714683 l -0.35268345257626704 8.19011203478744 a29.197702163416963,29.197702163416963 0 0,0 -0.5019389931382291,-0.025944512593763635 l 0.49361051412798507 -8.182827715431474" fill="#ff3004" stroke="none" /><path d="M 97.65516085044442 120.86867818915974 l -1.0413610651270526 9.267940170214196 a30.326261194424724,30.326261194424724 0 0,0 -0.5182506430504692,-0.06275293552098594 l 1.2007391312289113 -9.248641705967861" fill="#ff4106" stroke="none" /><path d="M 97.2962882734958 120.8252237178851 l -1.1722909777713117 9.029521022979502 a30.10530153487477,30.10530153487477 0 0,0 -0.5133260825398984,-0.07114231760210994 l 1.3275456514980413 -9.008004139884788" fill="#ff3e05" stroke="none" /><path d="M 96.93821686468263 120.77559828337769 l -1.4019117887503558 9.512612378012166 a30.615360155384067,30.615360155384067 0 0,0 -0.5207004128672365,-0.0813226957450142 l 1.5654480652261096 -9.487071374920047" fill="#ff4606" stroke="none" /><path d="M 96.58105272829116 120.7198165907248 l -1.3694571271465388 8.29930918740228 a29.41153647148916,29.41153647148916 0 0,0 -0.49880709356705616,-0.08672400696170852 l 1.512113192185645 -8.274506601919564" fill="#ff3404" stroke="none" /><path d="M 96.22490169976321 120.6578951692458 l -1.5157863457414882 8.294606640398666 a29.43196937641984,29.43196937641984 0 0,0 -0.49758582359824555,-0.09536350735684264 l 1.6583397839114287 -8.267285934693355" fill="#ff3404" stroke="none" /><path d="M 95.51606077576429 120.51570834832081 l -3.6491792303826527 16.696367425461954 a38.09050011736003,38.09050011736003 0 0,0 -0.6393397043294387,-0.1455116351940061 l 3.936039084104954 -16.63107905669026" fill="#ffb110" stroke="none" /><path d="M 95.16358092515715 120.4354850818985 l -2.2843648556960656 9.65220408070345 a30.918838964792585,30.918838964792585 0 0,0 -0.516855088483051,-0.1270304057273069 l 2.450173228922327 -9.611452416662113" fill="#ff4a06" stroke="none" /><path d="M 94.81253420990036 120.34920634021253 l -2.236458298065236 8.773099085389028 a30.053674021138526,30.053674021138526 0 0,0 -0.5001926809055226,-0.13210543320768092 l 2.387141421782248 -8.733302302877766" fill="#ff3d05" stroke="none" /><path d="M 94.46302465271185 120.25689768951611 l -2.0099744408383824 7.353445528080038 a28.62319869787374,28.62319869787374 0 0,0 -0.4741485093399464,-0.13399910488091576 l 2.1362541182829426 -7.317757629860601" fill="#ff2803" stroke="none" /><path d="M 94.11515582081647 120.15858648285463 l -9.61179328594328 32.92528405346688 a55.29957580165074,55.29957580165074 0 0,0 -0.911455575609044,-0.27461408814690935 l 10.17712383599257 -32.75495459621425" fill="#74ff27" stroke="none" /><path d="M 93.76903079525671 120.05430185196036 l -1.7911875974355131 5.7649164314782295 a27.036771858463304,27.036771858463304 0 0,0 -0.4432468308816601,-0.14191363797473164 l 1.8901557734081136 -5.7332299468437915" fill="#ff0f01" stroke="none" /><path d="M 93.42475214034765 119.94407469862007 l -2.781113824261372 8.435688363444656 a29.88231007501164,29.88231007501164 0 0,0 -0.48712472325863637,-0.16525915412837985 l 2.925908280457234 -8.386566222418153" fill="#ff3b05" stroke="none" /><path d="M 93.08242187328487 119.8279376855182 l -2.496545150815893 7.155877501157518 a28.578873300275887,28.578873300275887 0 0,0 -0.46308721730120256,-0.166046600270198 l 2.619351928746822 -7.111843359847363" fill="#ff2703" stroke="none" /><path d="M 92.7421414339146 119.70592522655815 l -2.692455272670054 7.310327391472624 a28.790391643931883,28.790391643931883 0 0,0 -0.4635661319422706,-0.17528104532343125 l 2.8178916253726074 -7.2628980960425595" fill="#ff2a04" stroke="none" /><path d="M 92.40401165467489 119.57807347666478 l -2.999362610072763 7.730625547800556 a29.292089448806564,29.292089448806564 0 0,0 -0.46850454688337095,-0.18642762803679808 l 3.1319882329979922 -7.677851075357692" fill="#ff3204" stroke="none" /><path d="M 92.06813273071674 119.44442032107085 l -3.204192442509155 7.85485466745292 a29.483253565433472,29.483253565433472 0 0,0 -0.46826221575929844,-0.1957336441645776 l 3.3389261177659155 -7.79853598026837" fill="#ff3505" stroke="none" /><path d="M 91.40352486487194 119.15986991738527 l -5.243266405606078 11.686220304772888 a33.808574768952376,33.808574768952376 0 0,0 -0.5289142299567132,-0.24279858136834298 l 5.443648631330211 -11.59423465307047" fill="#ff750a" stroke="none" /><path d="M 90.42595943632237 118.69057910512821 l -4.065380465366525 7.936493967724374 a29.917132657301288,29.917132657301288 0 0,0 -0.45632046478358473,-0.23872530013771268 l 4.201391832676605 -7.865339248641945" fill="#ff3b05" stroke="none" /><line stroke="#e1ed5e" stroke-width="0.3" x1="58.666819895761336" x2="56.23545636021788" y1="174.27360380694188" y2="178.64263932499728" /><path d="M 58.180547188652646 175.14741091055294 a86.0,86.0 0 0,1 -31.652253787137756,-30.449443065178592" fill="none" id="id8" stroke="none" /><text fill="#e1ed5e" style="font-size:6.75px; font-family:Arial;" text-anchor="middle"><textPath startOffset="22.20632615414155" xlink:href="#id8">August</textPath></text><path d="M 88.8546689885994 117.79835938074946 l -4.269472918310765 6.818066981477906 a29.044528349388067,29.044528349388067 0 0,0 -0.4214474447153608,-0.2689876993130452 l 4.386202165073049 -6.743564853341057" fill="#ff2e04" stroke="none" /><path d="M 87.65650970185807 116.9893568818739 l -4.842245230969406 6.664778790394055 a29.238119639925873,29.238119639925873 0 0,0 -0.4046208097172673,-0.2993288019114523 l 4.9562510111052385 -6.580440039742836" fill="#ff3104" stroke="none" /><path d="M 87.07902340077011 116.55440617244103 l -3.116987281256224 3.993496396497126 a26.065927672238185,26.065927672238185 0 0,0 -0.3513221677618235,-0.27911157778483603 l 3.1852669417354056 -3.9392509047071593" fill="#ff0000" stroke="none" /><path d="M 86.79598089348748 116.32954008644616 l -6.7436289061671495 8.33991208760518 a31.72523493696414,31.72523493696414 0 0,0 -0.42168860713544515,-0.3470210152582555 l 6.886187641847283 -8.222595953489744" fill="#ff5608" stroke="none" /><path d="M 86.51685102203217 116.09983520530335 l -5.8209262703316735 6.95059839861576 a30.066090708981317,30.066090708981317 0 0,0 -0.3939152161145982,-0.33570309298097367 l 5.939706963023328 -6.849370915411835" fill="#ff3d05" stroke="none" /><path d="M 84.9287848128048 114.62390073753433 l -6.490082770829595 6.297456777050828 a30.04318175373262,30.04318175373262 0 0,0 -0.3569322392041681,-0.3742420258092827 l 6.59752156141272 -6.1848076346590455" fill="#ff3d05" stroke="none" /><path d="M 84.67929136418377 114.36230785411682 l -6.446210201988289 6.042961694139152 a29.835780214845265,29.835780214845265 0 0,0 -0.34801816827982424,-0.37770498724473794 l 6.549274778263842 -5.93110545209307" fill="#ff3a05" stroke="none" /><path d="M 84.43433777217949 114.09645910891817 l -6.481625047412294 5.869841006628374 a29.744512376247084,29.744512376247084 0 0,0 -0.34042049148364106,-0.3824660309547267 l 6.5817043885442725 -5.757400805932784" fill="#ff3905" stroke="none" /><path d="M 83.28015986056508 112.70617746262583 l -7.036481740940716 5.3473469224174535 a29.837770895383038,29.837770895383038 0 0,0 -0.3072419896695184,-0.41160085393068996 l 7.127484997305319 -5.225433188977456" fill="#ff3a05" stroke="none" /><path d="M 82.85270091963577 112.12312394758628 l -6.813699812210335 4.817279209858902 a29.344620070240104,29.344620070240104 0 0,0 -0.2880511124262445,-0.41495911131715046 l 6.895611831798714 -4.699278836354739" fill="#ff3204" stroke="none" /><path d="M 82.44556493220864 111.52570212397912 l -5.659989615851334 3.716175091091959 a27.77092606363393,27.77092606363393 0 0,0 -0.25892439346548424,-0.40185640861508715 l 5.723118872693863 -3.6181970825554237" fill="#ff1a02" stroke="none" /><path d="M 82.24976979558568 111.22182372390057 l -8.677847716640505 5.486197996168801 a31.26661626079252,31.26661626079252 0 0,0 -0.28368552360065963,-0.4573913914814261 l 8.770997879909121 -5.336010273322111" fill="#ff4f07" stroke="none" /><path d="M 82.05923443525364 110.91462005526583 l -7.351114903473849 4.472196343264213 a29.604616810572168,29.604616810572168 0 0,0 -0.2611114857592181,-0.43763786923705045 l 7.4270072649313 -4.344996380141052" fill="#ff3605" stroke="none" /><line stroke="#e1ed5e" stroke-width="0.3" x1="26.63291911575756" x2="22.317208475507996" y1="142.92168965132927" y2="145.44649492493687" /><path d="M 25.769776987707644 143.4266507060508 a86.0,86.0 0 0,1 -11.730757126820373,-40.83630448921669" fill="none" id="id9" stroke="none" /><text fill="#e1ed5e" style="font-size:6.75px; font-family:Arial;" text-anchor="middle"><textPath startOffset="21.46611528233685" xlink:href="#id9">September</textPath></text><path d="M 81.87401531095188 110.60418214915194 l -7.851158916338714 4.593136354191974 a30.096020992599172,30.096020992599172 0 0,0 -0.2577480618702434,-0.4494054715195656 l 7.929058974361334 -4.457311036814102" fill="#ff3e05" stroke="none" /><path d="M 81.69416730710424 110.29060199501025 l -7.656304678984481 4.303982535279071 a29.783123988731283,29.783123988731283 0 0,0 -0.24737521066024667,-0.44905786233549344 l 7.729256299096244 -4.171554154545756" fill="#ff3905" stroke="none" /><path d="M 80.87730276802145 108.67885076344099 l -7.668956838975406 3.48056192645431 a29.42182939283093,29.42182939283093 0 0,0 -0.2053348286206975,-0.4629758317280513 l 7.727732752327383 -3.3480377582335628" fill="#ff3404" stroke="none" /><path d="M 80.45479744820244 107.68017299344265 l -7.574911346132314 2.9765170964133727 a29.138730609069523,29.138730609069523 0 0,0 -0.17941926443506678,-0.4684070831437703 l 7.62502489016089 -2.8456864464364444" fill="#ff2f04" stroke="none" /><path d="M 80.32549172779594 107.34259656027581 l -8.479642382227938 3.1646327382971897 a30.05092455491585,30.05092455491585 0 0,0 -0.17669333889973726,-0.486184181882649 l 8.5328599821329 -3.0182007594084235" fill="#ff3d05" stroke="none" /><path d="M 80.20201598880116 107.00284435728193 l -7.90921649252174 2.7976086885334928 a29.389417137068342,29.389417137068342 0 0,0 -0.16459356802635475,-0.47838595322596034 l 7.9562008914913225 -2.6610500322182356" fill="#ff3304" stroke="none" /><path d="M 79.97269907076064 106.31721596034903 l -7.945492582012965 2.506248481973226 a29.331394470568306,29.331394470568306 0 0,0 -0.1477369647641834,-0.4828129488529272 l 7.987456319283278 -2.3691085605682507" fill="#ff3204" stroke="none" /><path d="M 79.86692584326677 105.97154293290107 l -7.744993092239499 2.297193086623729 a29.078490829113406,29.078490829113406 0 0,0 -0.138202261570734,-0.48110020296112455 l 7.783387990696337 -2.1635354081580087" fill="#ff2e04" stroke="none" /><path d="M 79.4281124754447 104.21870165774334 l -5.920670087063574 1.2141589186423698 a27.04388254018625,27.04388254018625 0 0,0 -0.08959260575804577,-0.4568307665675086 l 5.940692625797286 -1.1120644250069063" fill="#ff0f01" stroke="none" /><path d="M 79.35854240842038 103.8639653848113 l -8.91038088188697 1.667973452957148 a30.065154323014397,30.065154323014397 0 0,0 -0.09084480968650399,-0.5095059371368136 l 8.937772133912663 -1.5143487650871206" fill="#ff3d05" stroke="none" /><path d="M 79.23777060512086 103.15116336523772 l -9.273804374065072 1.4075209383411842 a30.38000867591802,30.38000867591802 0 0,0 -0.07402009400130004,-0.5176963650453323 l 9.296658519082973 -1.2476791013154513" fill="#ff4206" stroke="none" /><path d="M 79.18660465613746 102.79330883721812 l -8.136011870436137 1.0919118904884675 a29.20895612928147,29.20895612928147 0 0,0 -0.06258852106155673,-0.4988920942557733 l 8.153601900744542 -0.9517020419452855" fill="#ff3004" stroke="none" /><path d="M 79.10278846688536 102.07522291339032 l -14.009698419281023 1.3912500777105734 a35.07860882963707,35.07860882963707 0 0,0 -0.054497798814545674,-0.6013786686901877 l 14.031570814372643 -1.1498900204718194" fill="#ff870c" stroke="none" /><path d="M 79.0095281055655 100.63252640178507 l -6.849406224122301 0.2063998510894411 a27.852515342673453,27.852515342673453 0 0,0 -0.010315958019056295,-0.4793420333668512 l 6.851944244826365 -0.08846800193246104" fill="#ff1c02" stroke="none" /><line stroke="#e1ed5e" stroke-width="0.3" x1="15.007084014347285" x2="10.007500721073583" y1="101.09737516637583" y2="101.16192664675087" /><path d="M 14.007167355692545 101.11028546245083 a86.0,86.0 0 0,1 10.666146001902534,-42.60595125391555" fill="none" id="id10" stroke="none" /><text fill="#e1ed5e" style="font-size:6.75px; font-family:Arial;" text-anchor="middle"><textPath startOffset="22.20632615414155" xlink:href="#id10">October</textPath></text><path d="M 79.00175016825051 100.2711162175752 l -14.438882537782423 0.18642578553081665 a35.44008599397486,35.44008599397486 0 0,0 -0.0026254398971939518,-0.6100597704032661 l 14.43995227496912 0.06214346307612484" fill="#ff8c0c" stroke="none" /><path d="M 79.00019446554 99.90962569577889 l -7.204963342298427 -0.031007122800751283 a28.205030062777567,28.205030062777567 0 0,0 0.006268222597504848,-0.48548074800040286 l 7.203362112583207 0.15502412886162611" fill="#ff2103" stroke="none" /><path d="M 79.00486145842228 99.54816195383935 l -8.748208437921791 -0.18827088948085802 a29.750234099791385,29.750234099791385 0 0,0 0.015425220899743611,-0.5118879857785488 l 8.743671522566403 0.33882902268440124" fill="#ff3905" stroke="none" /><path d="M 79.05617556472873 98.46500227214037 l -9.865447427522243 -0.7230503403219138 a30.891908548902222,30.891908548902222 0 0,0 0.04343331170034424,-0.5299964152885488 l 9.851539632002401 0.892760672818241" fill="#ff4a06" stroke="none" /><path d="M 79.12142395522702 97.74499172005258 l -33.178688960072016 -3.583492387714512 a54.37164692972183,54.37164692972183 0 0,0 0.10850935854467336,-0.9296419184622108 l 33.11208924852375 4.154078044501585" fill="#7fff26" stroke="none" /><path d="M 79.21141760316559 97.0276538004421 l -6.3867057295231895 -0.9131695533858842 a27.451657826385038,27.451657826385038 0 0,0 0.07090907868582111,-0.46720223206945644 l 6.3700407573980655 1.0229708978474328" fill="#ff1602" stroke="none" /><path d="M 79.26566170972629 96.67025291283419 l -7.771828018897126 -1.248085246106724 a28.871405690019014,28.871405690019014 0 0,0 0.0830233545197471,-0.49000853805819267 l 7.749192802857156 1.3816795724807445" fill="#ff2b04" stroke="none" /><path d="M 79.32604984820605 96.31383870115002 l -10.426694165944316 -1.8590775457642172 a31.591134054070977,31.591134054070977 0 0,0 0.1000600672606214,-0.53452488034429 l 10.393148374773833 2.03828050357108" fill="#ff5407" stroke="none" /><path d="M 79.3925641242962 95.95851677861259 l -8.980871658838188 -1.7613080220922266 a30.151953982686397,30.151953982686397 0 0,0 0.10426933941720808,-0.5084543295004811 l 8.949223023505985 1.9156380077561104" fill="#ff3f05" stroke="none" /><path d="M 79.46518482838121 95.60439243477599 l -8.679789269355922 -1.8579640020165515 a29.87641661895247,29.87641661895247 0 0,0 0.11197341353224599,-0.501954857085087 l 8.64652146882164 2.007097028651598" fill="#ff3b05" stroke="none" /><path d="M 79.71946130924805 94.55025226153421 l -8.099428775674877 -2.1764630775427536 a29.38675968536938,29.38675968536938 0 0,0 0.13547748132051837,-0.48738458226466985 l 8.060764523787997 2.315558963226366" fill="#ff3304" stroke="none" /><path d="M 80.02781315780177 93.51064311812611 l -11.377905549853429 -3.6969056150250728 a32.96343787662181,32.96343787662181 0 0,0 0.17998461873902463,-0.5381311011550025 l 11.312583637342632 3.8922098191023973" fill="#ff6809" stroke="none" /><path d="M 80.14247586403 93.16781622104843 l -12.625963199044476 -4.344091457297749 a34.35238095970126,34.35238095970126 0 0,0 0.1971939853114164,-0.5574939509030229 l 12.549316132923249 4.5607830346273825" fill="#ff7d0b" stroke="none" /><path d="M 80.2630227832202 92.82701384747504 l -6.729053376155447 -2.4455318642070876 a28.159663779675775,28.159663779675775 0 0,0 0.1694882043375206,-0.4541441233909081 l 6.685960583316298 2.560999124627337" fill="#ff2003" stroke="none" /><path d="M 80.38941819471856 92.48833698450439 l -9.140198730782641 -3.501073728562671 a30.78778576037667,30.78778576037667 0 0,0 0.19382589820868662,-0.49326576933975125 l 9.078579282692264 3.6578885027981856" fill="#ff4806" stroke="none" /><path d="M 80.65960295795068 91.81776055985345 l -7.38153311316521 -3.12286615605531 a29.014943800763056,29.014943800763056 0 0,0 0.19855795131248427,-0.45829912754689783 l 7.326684452010045 3.249464428188807" fill="#ff2d04" stroke="none" /><path d="M 80.803312248108 91.48605970444005 l -12.839565941453303 -5.694487468842864 a35.045698312926135,35.045698312926135 0 0,0 0.24932124420726384,-0.5493463128274214 l 12.739642380282687 5.914655790512356" fill="#ff860c" stroke="none" /><path d="M 80.95270993114464 91.15688171328213 l -8.240417706881924 -3.825792973724606 a30.08521743612632,30.08521743612632 0 0,0 0.22211744999812638,-0.4678359967081311 l 8.173342063042046 3.9670713860732696" fill="#ff3e05" stroke="none" /><path d="M 81.10775173730289 90.83032412892265 l -8.914667367825581 -4.326886304095217 a30.9092501919944,30.9092501919944 0 0,0 0.23644102621246207,-0.4766506810173342 l 8.838866328659707 4.479696573611512" fill="#ff4a06" stroke="none" /><path d="M 81.26839172434947 90.50648371742162 l -7.725085138814089 -3.9152122161858984 a29.66059045906788,29.66059045906788 0 0,0 0.23472906386658118,-0.45342183862979174 l 7.6565466417873935 4.047606777076026" fill="#ff3705" stroke="none" /><path d="M 81.43458229118936 90.18545643968196 l -7.804052194879339 -4.125585075163155 a29.827439202442008,29.827439202442008 0 0,0 0.24386332057679702,-0.45184169660910983 l 7.731880775084069 4.259307755104738" fill="#ff3a05" stroke="none" /><path d="M 81.6062741919709 89.86733742301443 l -7.853587646021709 -4.326353152507232 a29.966391164451508,29.966391164451508 0 0,0 0.25277701013450504,-0.4496620954125354 l 7.777952994594773 4.460898757854552" fill="#ff3c05" stroke="none" /><line stroke="#e1ed5e" stroke-width="0.3" x1="26.266209847984243" x2="21.928928074336255" y1="57.711370442889674" y2="55.22380399835377" /><path d="M 25.398753493254645 57.213857153982495 a86.0,86.0 0 0,1 29.58750427330803,-30.492523968695096" fill="none" id="id11" stroke="none" /><text fill="#e1ed5e" style="font-size:6.75px; font-family:Arial;" text-anchor="middle"><textPath startOffset="21.46611528233685" xlink:href="#id11">November</textPath></text><path d="M 81.78341655067845 89.55222093294921 l -7.799569810300133 -4.473296676226625 a29.991310937749034,29.991310937749034 0 0,0 0.26069636483992437,-0.4456145934796955 l 7.721413770989884 4.606890682060213" fill="#ff3c05" stroke="none" /><path d="M 82.15384107792192 88.93136811851018 l -7.5093177737784 -4.65746575955086 a29.836392970492703,29.836392970492703 0 0,0 0.2744556071171494,-0.4341228598027186 l 7.428034570415288 4.786036267067794" fill="#ff3a05" stroke="none" /><path d="M 82.34701348167596 88.62581576622439 l -27.8751625258342 -17.960543604685025 a54.16030476967097,54.16030476967097 0 0,0 0.5116946045877715,-0.779345988136132 l 27.561871285888508 18.437707656798825" fill="#81ff25" stroke="none" /><path d="M 82.54541684631803 88.32363383020206 l -10.133111324724702 -6.778616093266784 a33.19137323106628,33.19137323106628 0 0,0 0.3217595971763136,-0.47214250580731076 l 10.014927261879649 6.952036622344511" fill="#ff6c09" stroke="none" /><path d="M 82.7489923806493 88.02491185347247 l -7.4357906443449115 -5.161683906815552 a30.051738134767596,30.051738134767596 0 0,0 0.2986389762706922,-0.42240365315962247 l 7.345839048270341 5.28891406030696" fill="#ff3d05" stroke="none" /><path d="M 82.95767976084542 87.72973835380427 l -7.151294082852969 -5.148844070181034 a29.81201465718744,29.81201465718744 0 0,0 0.30342581564440535,-0.41387247154218243 l 7.06160565469493 5.271178985394717" fill="#ff3a05" stroke="none" /><path d="M 83.17141714833178 87.43820079747576 l -9.676147041369497 -7.222819488673305 a33.07464048873351,33.07464048873351 0 0,0 0.3444866496820885,-0.4533040507104432 l 9.5503844514633 7.388308315264775" fill="#ff6a09" stroke="none" /><path d="M 83.39014120810768 87.1503855733568 l -7.004985444404606 -5.419152754554652 a29.856468689806206,29.856468689806206 0 0,0 0.3179655900166203,-0.40378400940988796 l 6.9106657737940145 5.538929157917588" fill="#ff3a05" stroke="none" /><path d="M 83.6137871275137 86.86637796730984 l -12.387529606943843 -9.928659724025284 a36.875426724292865,36.875426724292865 0 0,0 0.40124241008701966,-0.49187575133007677 l 12.214788704780432 10.140419644963442" fill="#ffa00e" stroke="none" /><path d="M 83.84228863543731 86.58626213691792 l -10.438504520072835 -8.665791841160546 a34.56680967839918,34.56680967839918 0 0,0 0.3840033249324325,-0.4545388158363615 l 10.287790581653278 8.844189606626024" fill="#ff800b" stroke="none" /><path d="M 84.07557802195018 86.31012108654704 l -5.7064517655533695 -4.9057123582612165 a28.525264480042146,28.525264480042146 0 0,0 0.3232973828497126,-0.3695847962007719 l 5.621162519125813 5.003212710664932" fill="#ff2603" stroke="none" /><path d="M 84.31358615837235 86.03803664274999 l -15.563670781175308 -13.852713777983874 a41.83567918738322,41.83567918738322 0 0,0 0.48341398114121475,-0.5337977919497323 l 15.322913159418047 14.118564357203164" fill="#ffe415" stroke="none" /><path d="M 84.5562425177563 85.77008943001954 l -5.3673511276159545 -4.94548859832022 a28.298377600757277,28.298377600757277 0 0,0 0.3331563656250707,-0.35538798219299245 l 5.281427440020427 5.037145997391263" fill="#ff2303" stroke="none" /><path d="M 84.80347519578584 85.50635884689758 l -6.21430458965585 -5.926874854543878 a29.587515768512002,29.587515768512002 0 0,0 0.3546778603419983,-0.3655267121465387 l 6.111362465610734 6.032965762240541" fill="#ff3605" stroke="none" /><path d="M 85.05521093208273 85.24692304244772 l -5.630690882891361 -5.558460246040865 a28.91208949175201,28.91208949175201 0 0,0 0.3526782033402707,-0.35116369105436374 l 5.534176879383778 5.654559787745338" fill="#ff2c04" stroke="none" /><path d="M 85.31137513191541 84.99185889309783 l -6.063945385879021 -6.195852153155868 a29.669487732656968,29.669487732656968 0 0,0 0.368066605132984,-0.35407978251913774 l 5.956395537133608 6.299315022437319" fill="#ff3705" stroke="none" /><path d="M 85.57189188830299 84.74124197986013 l -10.093354387507354 -10.674445396318632 a35.69079941020236,35.69079941020236 0 0,0 0.450030585946704,-0.41825438353240363 l 9.908115917765793 10.846604365925684" fill="#ff900d" stroke="none" /><path d="M 85.83668400450813 84.49514656593479 l -11.066597873898106 -12.114816763471422 a37.40848480863039,37.40848480863039 0 0,0 0.47916530400974267,-0.4301993410344579 l 10.856421582292391 12.303515113275159" fill="#ffa80f" stroke="none" /><path d="M 86.10567301691215 84.25364557470407 l -4.897083646167284 -5.549834463859261 a28.40149247204907,28.40149247204907 0 0,0 0.36936303437159906,-0.3203079836432683 l 4.800826813148912 5.633307440922209" fill="#ff2403" stroke="none" /><path d="M 86.37877921826538 84.01681056812374 l -6.982789338180993 -8.193630111677836 a31.765450355113245,31.765450355113245 0 0,0 0.41921691195329464,-0.3510821077279093 l 6.840714889268588 8.312613376799558" fill="#ff5708" stroke="none" /><path d="M 86.65592168130627 83.78471172551755 l -5.057225891016844 -6.145375778942671 a28.958717055982476,28.958717055982476 0 0,0 0.38762842601756703,-0.31343522942275887 l 4.950694066434777 6.231517105629564" fill="#ff2d04" stroke="none" /><path d="M 86.93701828274178 83.55741782278169 l -6.005479893250258 -7.559192747544104 a30.654386761610315,30.654386761610315 0 0,0 0.4159762985052771,-0.3246760990900816 l 5.874471039585556 7.661447235857407" fill="#ff4606" stroke="none" /><path d="M 87.51073957382395 83.11751280151077 l -5.859311389088055 -7.920384886115188 a30.852107728729873,30.852107728729873 0 0,0 0.42965920979165434,-0.31216568846281517 l 5.722106862942619 8.020069809394672" fill="#ff4906" stroke="none" /><path d="M 87.80319425747018 82.90503203632743 l -5.45865252614798 -7.650813830209025 a30.39850199051633,30.39850199051633 0 0,0 0.4285738020331431,-0.3002433366715976 l 5.326147584531176 7.7436420096445655" fill="#ff4206" stroke="none" /><path d="M 88.09926311788651 82.69761687909137 l -4.638827155875472 -6.744352511756249 a29.18565868974028,29.18565868974028 0 0,0 0.4163755397190083,-0.281138623078638 l 4.522046921749924 6.8232030471335525" fill="#ff3004" stroke="none" /><path d="M 88.39885842347998 82.49532879139004 l -6.153508160099603 -9.284873942065373 a32.13887547270625,32.13887547270625 0 0,0 0.46376852487821907,-0.3016479491415779 l 5.992772609437098 9.389420815366485" fill="#ff5c08" stroke="none" /><path d="M 88.70189139769569 82.29822771554957 l -4.685875770434809 -7.341786909761418 a29.70972254232545,29.70972254232545 0 0,0 0.4334519035858654,-0.2714275422605161 l 4.5588047144767 7.421358793344864" fill="#ff3805" stroke="none" /><path d="M 89.00827224532344 82.1063720568725 l -4.5782916388126225 -7.453081901995777 a29.74695285044332,29.74695285044332 0 0,0 0.4386088103301086,-0.2642569005964187 l 4.449320762264865 7.530785412050815" fill="#ff3905" stroke="none" /><line stroke="#e1ed5e" stroke-width="0.3" x1="56.762969772571076" x2="54.21961505331055" y1="26.818313649435495" y2="22.513508569990535" /><path d="M 56.25429882871897 25.957352633546506 a86.0,86.0 0 0,1 42.265352541879196,-11.944610805530505" fill="none" id="id12" stroke="none" /><text fill="#e1ed5e" style="font-size:6.75px; font-family:Arial;" text-anchor="middle"><textPath startOffset="22.20632615414155" xlink:href="#id12">December</textPath></text><path d="M 89.3179101791058 81.91981866633112 l -32.046269462682616 -54.240544001006626 a84.0,84.0 0 0,0 1.2512130701387194,-0.7247833704398112 l 31.107859660078574 54.78413152883649" fill="#4dd2ff" stroke="none" /><path d="M 89.94658935756843 81.56283822128135 l -4.251741536691081 -7.797358462850121 a29.881222049527004,29.881222049527004 0 0,0 0.4537036031561576,-0.2423527520552116 l 4.116892887006618 7.869389941407082" fill="#ff3b05" stroke="none" /><path d="M 90.58718382345135 81.22770947309562 l -5.218770981188305 -10.40796752159314 a32.64308200111254,32.64308200111254 0 0,0 0.5044580020331343,-0.2475353507606091 l 5.038841712144745 10.496258032488578" fill="#ff6409" stroke="none" /><path d="M 91.56875222667455 80.76684994638697 l -4.150796741531943 -9.468692976205134 a31.33853279083394,31.33853279083394 0 0,0 0.4959192120673876,-0.2123267256396932 l 3.987193771674247 9.538739229807614" fill="#ff5007" stroke="none" /><path d="M 91.90106846888425 80.62456947434976 l -3.331529325081952 -7.970164303068139 a29.638437744278917,29.638437744278917 0 0,0 0.47240300920051087,-0.19270504878605083 l 3.193842446293061 8.026330238037767" fill="#ff3705" stroke="none" /><path d="M 92.23578459929587 80.48803036053334 l -3.680968739756909 -9.250509753689862 a30.95597617344371,30.95597617344371 0 0,0 0.49679452925330614,-0.19274855918419107 l 3.5211910455039264 9.312501016764605" fill="#ff4b06" stroke="none" /><path d="M 92.91201910852362 80.23233633223022 l -2.87772881635957 -8.025695362307363 a29.526025403965683,29.526025403965683 0 0,0 0.47989351518371876,-0.16742542449142347 l 2.739153297112566 8.074041639970998" fill="#ff3505" stroke="none" /><path d="M 93.25333710446033 80.11325718540243 l -2.594853764566584 -7.648698364867425 a29.076871469585917,29.076871469585917 0 0,0 0.47536140242659264,-0.1567191805635889 l 2.462809539897582 7.6922312696902475" fill="#ff2e04" stroke="none" /><path d="M 95.33964822691252 79.52364482259891 l -1.8580092805924135 -8.16360219243981 a29.372371184029983,29.372371184029983 0 0,0 0.4939555520239833,-0.10795955163452362 l 1.7172110044149094 8.194375242170203" fill="#ff3304" stroke="none" /><path d="M 96.40284397218896 79.31037775812273 l -1.379203121733092 -7.932708885257885 a29.051712333985094,29.051712333985094 0 0,0 0.4934236810089138,-0.08141913518371209 l 1.2424502345852924 7.9552742833812236" fill="#ff2e04" stroke="none" /><path d="M 96.75951476605007 79.25152402106235 l -0.9269839505375181 -5.935377834493062 a27.00732962993922,27.00732962993922 0 0,0 0.45993613483117746,-0.06778263045622353 l 0.8246788352776919 5.950454949110255" fill="#ff0f01" stroke="none" /><path d="M 97.11714578562143 79.19881850522333 l -1.07079987072043 -7.726336747916494 a28.800185376344572,28.800185376344572 0 0,0 0.4916401082696623,-0.06382899621898977 l 0.93764503394291 7.743624067299621" fill="#ff2a04" stroke="none" /><path d="M 97.47563105711357 79.15227682838746 l -1.0760416944332287 -8.886585073022793 a29.951494846573407,29.951494846573407 0 0,0 0.5123606775498218,-0.057569691981534214 l 0.922914313373689 8.903790718474927" fill="#ff3c05" stroke="none" /><path d="M 98.19473922651362 79.07773832637324 l -1.3848947871506498 -16.05038538075016 a37.11002186348844,37.11002186348844 0 0,0 0.6368959977418813,-0.049435387229120234 l 1.1084086000464344 16.071846030167745" fill="#ffa40f" stroke="none" /><path d="M 98.55514903715128 79.0497635885617 l -0.4711164978981408 -6.831155781517362 a27.847381986274016,27.847381986274016 0 0,0 0.4784948695765479,-0.028864117245663533 l 0.35345957948196993 6.838253168143331" fill="#ff1c02" stroke="none" /><path d="M 98.91598698831166 79.02799685794201 l -0.33435845670916414 -6.468710734160731 a27.477346226643995,27.477346226643995 0 0,0 0.4725569281602425,-0.020349295376486498 l 0.22296069615959763 6.47350775606141" fill="#ff1602" stroke="none" /></svg>