<?xml version="1.0" encoding="utf-8" ?>
<svg baseProfile="full" height="200mm" version="1.1" viewBox="0,0,200,200" width="200mm" xmlns="http://www.w3.org/2000/svg" xmlns:ev="http://www.w3.org/2001/xml-events" xmlns:xlink="http://www.w3.org/1999/xlink"><defs /><rect fill="#1a1a1a" height="200" width="200" x="0" y="0" /><text alignment-baseline="middle" fill="#e1ed5e" style="dominant-baseline: central; font-size:9.0px; font-family:Arial;" text-anchor="middle" x="100.0" y="100.0">2024</text><line stroke="#e1ed5e" stroke-width="0.3" x1="100.0" x2="100.0" y1="15.0" y2="10.0" /><path d="M 100.0 14.0 a86.0,86.0 0 0,1 42.35913384403234,11.155469271406648" fill="none" id="id13" stroke="none" /><text fill="#e1ed5e" style="font-size:6.75px; font-family:Arial;" text-anchor="middle"><textPath startOffset="22.145653131862478" xlink:href="#id13">January</textPath></text><path d="M 100.0 79.0 l 0.0 -21.46650898443393 a42.46650898443393,42.46650898443393 0 0,0 0.7289940967580361,0.006257537558351727 l -0.36850117190918125 21.463345845070013" fill="#ffaa0f" stroke="none" /><path d="M 101.44090949804482 79.04949213459386 l 1.0243136071129484 -14.893295041486995 a35.928478005426335,35.928478005426335 0 0,0 0.6149432840803001,0.04760049936095531 l -1.2798258859684821 14.873516775130986" fill="#ff4106" stroke="none" /><path d="M 101.80034050326958 79.07731436759882 l 1.4150747225573692 -16.445313268604398 a37.5060826658828,37.5060826658828 0 0,0 0.6409975925953874,0.06070313846146744 l -1.6971718785377696 16.418598374637746" fill="#ff5b08" stroke="none" /><path d="M 102.15924093988457 79.11130261209362 l 3.1264786189160136 -30.245844525246625 a51.4070054362466,51.4070054362466 0 0,0 0.8770135454295158,0.09827119704057784 l -3.645228065946326 30.187717567699078" fill="#d0ff1d" stroke="none" /><path d="M 102.51750503828377 79.15144685158666 l 2.40243536680634 -19.895611197916526 a41.0401357438103,41.0401357438103 0 0,0 0.6987027962392682,0.0904610654904767 l -2.7436159849364 19.85143853622565" fill="#ff940d" stroke="none" /><path d="M 102.87502721639298 79.19773525538626 l 2.3094508531699094 -16.710035921881797 a37.86887262841792,37.86887262841792 0 0,0 0.6431845783570049,0.0945259837410951 l -2.595960537134596 16.66792886484182" fill="#ff6108" stroke="none" /><path d="M 103.23170211078529 79.25015418208739 l 2.186347979084011 -14.037922405934289 a35.2071595669464,35.2071595669464 0 0,0 0.5963799386458642,0.0981340919549945 l -2.4270054207829457 13.998322315483627" fill="#ff3405" stroke="none" /><path d="M 103.58742460773223 79.30868818359171 l 2.3834849900094297 -13.74730803588641 a34.95240047200292,34.95240047200292 0 0,0 0.5903048774491997,0.10757321276132073 l -2.619124601009683 13.704366649193725" fill="#ff3004" stroke="none" /><path d="M 103.94208987418118 79.37332000966035 l 5.757319251085598 -30.12472713322689 a51.66995125216695,51.66995125216695 0 0,0 0.8697861600040548,0.17398159178292294 l -6.27360189662061 30.02145614478111" fill="#ccff1d" stroke="none" /><path d="M 104.29559338865022 79.4440306129975 l 4.84533070974304 -23.186661475582085 a44.68751781149771,44.68751781149771 0 0,0 0.7495534895814931,0.16336169438153098 l -5.242646615943666 23.100068323066836" fill="#ffcc13" stroke="none" /><path d="M 104.64783097203109 79.52079915486377 l 3.4592981474368827 -15.242305920950741 a36.62992749377649,36.62992749377649 0 0,0 0.6120125604002634,0.14443329783065578 l -3.7204428615770313 15.180676479473858" fill="#ff4c07" stroke="none" /><path d="M 105.3480935250658 79.69241777938227 l 6.6401927149065285 -25.213893303605236 a47.07359919183937,47.07359919183937 0 0,0 0.7796701582793975,0.21250256867824222 l -7.072044274120619 25.096190240782853" fill="#fff016" stroke="none" /><path d="M 105.69591212413111 79.78721728523813 l 4.3947493632471435 -15.595415102845058 a37.20280204766475,37.20280204766475 0 0,0 0.6132084495308713,0.17849604266273786 l -4.661817825159619 15.517675365879805" fill="#ff5607" stroke="none" /><path d="M 106.38641147887787 79.99465700312896 l 7.679112049467926 -24.054709122501375 a46.25069885837686,46.25069885837686 0 0,0 0.7542767965188377,0.2479457648566019 l -8.090911583634506 23.91934243624275" fill="#ffe415" stroke="none" /><path d="M 106.72888874123014 80.10723608172694 l 8.100448897338646 -23.947537809539455 a46.280463593014204,46.280463593014204 0 0,0 0.7503919390715242,0.26102526901947076 l -8.510346608455189 23.804954107951392" fill="#ffe415" stroke="none" /><path d="M 107.40779381753099 80.34994680014964 l 9.047498391006213 -23.999564389615777 a46.6483199844858,46.6483199844858 0 0,0 0.7468790041362715,0.28890884358832425 l -9.45814965763601 23.840715657889415" fill="#ffea16" stroke="none" /><path d="M 107.74402155503746 80.48000691201159 l 5.498530233057257 -13.859888093099924 a35.91074554397257,35.91074554397257 0 0,0 0.571058727130235,0.23224461288618195 l -5.735643421377931 13.76345622363445" fill="#ff4006" stroke="none" /><path d="M 108.07796709384702 80.6158196554323 l 12.042553110174916 -28.897743526892096 a52.30659142029706,52.30659142029706 0 0,0 0.8258586215410394,0.35250993694667054 l -12.536846806886386 28.686758940286023" fill="#c4ff1e" stroke="none" /><path d="M 108.4095320186766 80.7573450057729 l 5.466330018016324 -12.508032835557062 a34.650335134392854,34.650335134392854 0 0,0 0.542998137109014,0.24287616007138935 l -5.680241557980969 12.41235292457582" fill="#ff2b04" stroke="none" /><path d="M 108.73861861582097 80.90454125486305 l 5.492305312589464 -12.001678311303174 a34.1987006911553,34.1987006911553 0 0,0 0.5317267498377413,0.24887496738160722 l -5.697520776298711 11.905627112351034" fill="#ff2303" stroke="none" /><path d="M 109.06512990194946 81.05736502329252 l 8.627733557079457 -18.028644841912318 a40.98674113425614,40.98674113425614 0 0,0 0.632054096784652,0.30916933137207064 l -8.935947903126175 17.877881760443024" fill="#ff930d" stroke="none" /><path d="M 109.71004243097381 81.37971332152246 l 9.707465219593777 -18.615344535838265 a41.99442624073319,41.99442624073319 0 0,0 0.6363379097346518,0.33881409505839644 l -10.025591945114988 18.445959973057295" fill="#ffa30f" stroke="none" /><line stroke="#e1ed5e" stroke-width="0.3" x1="143.13028292997686" x2="145.6673583964461" y1="26.7553504044142" y2="22.446841604673864" /><path d="M 143.63769802327073 25.89364864446614 a86.0,86.0 0 0,1 29.32050498858742,28.57503671076993" fill="none" id="id14" stroke="none" /><text fill="#e1ed5e" style="font-size:6.75px; font-family:Arial;" text-anchor="middle"><textPath startOffset="20.669276256404974" xlink:href="#id14">February</textPath></text><line stroke="#e1ed5e" stroke-width="0.3" x1="172.87174338648825" x2="177.1583165268699" y1="56.24261187166439" y2="53.66864786411523" /><path d="M 173.72905801456457 55.72781907015455 a86.0,86.0 0 0,1 12.242430191666344,42.057860355516425" fill="none" id="id15" stroke="none" /><text fill="#e1ed5e" style="font-size:6.75px; font-family:Arial;" text-anchor="middle"><textPath startOffset="22.145653131862474" xlink:href="#id15">March</textPath></text><path d="M 120.7213421655516 96.59031103205396 l 11.007958931046144 -1.811355453083992 a32.155992488569346,32.155992488569346 0 0,0 0.0849507848609038,0.5454449783882003 l -11.037431208045312 1.6221222927643504" fill="#ff0000" stroke="none" /><path d="M 120.77682067341334 96.94652285012252 l 11.585207083372394 -1.7026264827391773 a32.7096524331146,32.7096524331146 0 0,0 0.07687622424511141,0.5562380627893686 l -11.612727824172717 1.503500111749723" fill="#ff0a01" stroke="none" /><path d="M 120.86939407059847 97.66154086499901 l 12.866958001035334 -1.4417694819221085 a33.947482668048224,33.947482668048224 0 0,0 0.05992152208450739,0.5796863697447933 l -12.889811915601507 1.2206785898943837" fill="#ff1f03" stroke="none" /><path d="M 120.9064616781168 98.02013634271609 l 62.7193850343504 -5.939590971851745 a84.0,84.0 0 0,0 0.12362550920903681,1.4367158104973519 l -62.812104166257186 4.862054113978731" fill="#4dd2ff" stroke="none" /><path d="M 120.93736805541906 98.37931529534042 l 11.621390994733884 -0.8995691618058428 a32.656155169238005,32.656155169238005 0 0,0 0.03846590106980473,0.5592857594501373 l -11.635120856968754 0.6999399782013714" fill="#ff0901" stroke="none" /><path d="M 120.96210409425399 98.7389718711861 l 13.455947288884134 -0.8094763748345013 a34.48027334450765,34.48027334450765 0 0,0 0.030471384208427002,0.5911367131477718 l -13.467860262549134 0.5783678683099989" fill="#ff2803" stroke="none" /><path d="M 120.98066250479742 99.09900007780936 l 17.579587031665014 -0.7549431074472512 a38.5957898174355,38.5957898174355 0 0,0 0.022744522837839332,0.6621819659724734 l -17.589956241499703 0.45305487691065793" fill="#ff6d0a" stroke="none" /><path d="M 120.99303781780057 99.45929381324524 l 31.411181794631737 -0.8090406198970658 a52.42159907547749,52.42159907547749 0 0,0 0.015448316742185624,0.8997870026947142 l -31.420441542972586 0.2697067012332851" fill="#c2ff1e" stroke="none" /><line stroke="#e1ed5e" stroke-width="0.3" x1="184.99686870605535" x2="189.99668451229388" y1="99.2704041080226" y2="99.22748670261217" /><path d="M 185.99683186730306 99.26182062694052 a86.0,86.0 0 0,1 -10.086455211305974,41.156179273409016" fill="none" id="id16" stroke="none" /><text fill="#e1ed5e" style="font-size:6.75px; font-family:Arial;" text-anchor="middle"><textPath startOffset="21.40746469413373" xlink:href="#id16">April</textPath></text><path d="M 120.99922638620191 99.81974689727618 l 17.739983028392984 -0.15227641839401343 a38.7406365713091,38.7406365713091 0 0,0 0.0,0.6650590422356785 l -17.739983028392984 -0.1522764183940113" fill="#ff6f0a" stroke="none" /><path d="M 120.99303781780057 100.54070618675476 l 18.0956083978619 0.4660786827868596 a39.101609669510566,39.101609669510566 0 0,0 -0.023042602789874002,0.6708602385420976 l -18.08494110807518 -0.776645185893068" fill="#ff750a" stroke="none" /><path d="M 120.98066250479742 100.90099992219065 l 27.262286494347244 1.1707598844664358 a48.28741364818117,48.28741364818117 0 0,0 -0.042673221264916295,0.8278490922966975 l -27.238171683625755 -1.6385807701398638" fill="#fcff18" stroke="none" /><path d="M 120.93736805541906 101.62068470465957 l 29.907154491354493 2.3150029036951394 a50.9966186130014,50.9966186130014 0 0,0 -0.07505336838061122,0.8722339076571858 l -29.863007500276144 -2.8280578587279828" fill="#d6ff1c" stroke="none" /><path d="M 120.9064616781168 101.97986365728391 l 17.337057520693882 1.6418373724804518 a38.41462584822085,38.41462584822085 0 0,0 -0.0678065844716903,0.6559671955888194 l -17.306318543740524 -1.9392090903522028" fill="#ff6a09" stroke="none" /><path d="M 120.86939407059847 102.33845913500097 l 32.59655489980633 3.652511966430427 a53.8005523581693,53.8005523581693 0 0,0 -0.11072131576180047,0.9169313273334292 l -32.52905149778486 -4.2115369706872645" fill="#afff20" stroke="none" /><path d="M 120.82617615685814 102.69636545807757 l 18.608876767925857 2.409291660300024 a39.76419411720743,39.76419411720743 0 0,0 -0.09345623925939234,0.6762027921074367 l -18.564776012111256 -2.7283827606075457" fill="#ff800b" stroke="none" /><path d="M 120.77682067341334 103.0534771498775 l 32.31569069191409 4.749293679784999 a53.66281762727014,53.66281762727014 0 0,0 -0.14176824045796296,0.9102538014138523 l -32.22940095931786 -5.3033356631303015" fill="#b1ff20" stroke="none" /><path d="M 120.7213421655516 103.40968896794604 l 13.665128339880168 2.2485916681360782 a34.84889515576629,34.84889515576629 0 0,0 -0.10219883658865993,0.5894557311594361 l -13.624514685799273 -2.4828404322161024" fill="#ff2e04" stroke="none" /><path d="M 120.65975698304385 103.76489593502545 l 17.453755058831813 3.180655586890855 a38.74119882127803,38.74119882127803 0 0,0 -0.12484574122237746,0.6532456728642347 l -17.396583025327274 -3.479803824788404" fill="#ff6f0a" stroke="none" /><path d="M 120.592083275326 104.11899336999214 l 32.32611724644764 6.466128795004023 a53.96647809252089,53.96647809252089 0 0,0 -0.18950531587091785,0.9068515381389046 l -32.210354219752354 -7.020096784428336" fill="#adff20" stroke="none" /><path d="M 120.51834098615036 104.47187691870673 l 17.04639778914099 3.7151830585039436 a38.446554466249935,38.446554466249935 0 0,0 -0.1460770217589726,0.643642310889382 l -16.980109905824353 -4.007259703332343" fill="#ff6a09" stroke="none" /><path d="M 120.43855184770803 104.8234425847677 l 17.913898609126118 4.227631294736742 a39.40599439699709,39.40599439699709 0 0,0 -0.16102504044244315,0.6570371149349711 l -17.838686042167378 -4.534524234279813" fill="#ff7a0b" stroke="none" /><path d="M 120.35273937422433 105.17358676015961 l 26.864962141304304 6.828968321702303 a48.71932537405135,48.71932537405135 0 0,0 -0.2129974551159492,0.808786030438051 l -26.743775205383624 -7.289134856513157" fill="#f6ff19" stroke="none" /><path d="M 120.26092885502905 105.52220625578681 l 17.680299320100737 4.818844200492281 a39.325235154752384,39.325235154752384 0 0,0 -0.1831086091882589,0.6497878566357107 l -17.5949722188379 -5.1216399810310005" fill="#ff790b" stroke="none" /><path d="M 120.16314734710363 105.8691983318838 l 19.04515610709226 5.543767375695401 a40.83560757474644,40.83560757474644 0 0,0 -0.20169616631144552,0.6713809395278934 l -18.947183620777185 -5.869885918814018" fill="#ff910d" stroke="none" /><path d="M 120.05942366710727 106.21446072829308 l 18.07388004997717 5.599334240227458 a39.92135523673572,39.92135523673572 0 0,0 -0.20841852990174745,0.6528680764429379 l -17.975096804298165 -5.90877135036178" fill="#ff820c" stroke="none" /><path d="M 119.94978838288452 106.5578916946017 l 35.0012381047505 11.505602177958107 a57.84379934728329,57.84379934728329 0 0,0 -0.31818105220257803,0.9406457437690425 l -34.79857163097555 -12.104749596201309" fill="#7aff26" stroke="none" /><path d="M 119.83427380445688 106.89939002012753 l 34.80330266565193 12.10639529564828 a57.84880844059234,57.84880844059234 0 0,0 -0.33431055026241846,0.9351261085998761 l -34.59035194534557 -12.702056360629078" fill="#7aff26" stroke="none" /><path d="M 119.71291397450082 107.23885506374661 l 21.99164478590231 8.075636581403828 a44.42751259916878,44.42751259916878 0 0,0 -0.2690388760505532,0.7136575824653941 l -21.849775226037316 -8.45196244406338" fill="#ffc912" stroke="none" /><path d="M 119.58574465831526 107.57618678355244 l 15.011084441941478 5.806609936964704 a37.09501087552148,37.09501087552148 0 0,0 -0.2348314237113262,0.5919285909923344 l -14.909194343264028 -6.063439545170603" fill="#ff5407" stroke="none" /><path d="M 119.4528033332814 107.91128576633889 l 15.878279931107334 6.4575582172260635 a38.14117357999358,38.14117357999358 0 0,0 -0.25186643021871047,0.6043877437704331 l -15.765087656352138 -6.729178470437774" fill="#ff6509" stroke="none" /><path d="M 119.31412917781788 108.2440532568976 l 19.807069562332018 8.454460194999553 a42.5359676317525,42.5359676317525 0 0,0 -0.29241678674514815,0.669106833693085 l -19.659018893569904 -8.793229098468483" fill="#ffab0f" stroke="none" /><path d="M 119.16976305983485 108.57439118712176 l 20.622666917017504 9.224256602248573 a43.5916201418662,43.5916201418662 0 0,0 -0.3114009630198655,0.6804673031245633 l -20.461281489142582 -9.576912887587826" fill="#ffbc11" stroke="none" /><path d="M 119.0197475246899 108.90220220490707 l 27.181670889644288 12.722394459376241 a51.01170693467639,51.01170693467639 0 0,0 -0.3780228421859926,0.7899223496893154 l -26.95926878949838 -13.18712931113066" fill="#d5ff1c" stroke="none" /><path d="M 118.8641267826498 109.22738970284198 l 14.504264095086961 7.0947623868495935 a37.14649591291821,37.14649591291821 0 0,0 -0.28510835405353274,0.5704076946218923 l -14.380335827821696 -7.342701937635232" fill="#ff5507" stroke="none" /><path d="M 118.70294669586154 109.54985784667822 l 15.416595796027183 7.871823661045556 a38.31002696961156,38.31002696961156 0 0,0 -0.30409392253268214,0.583140192743055 l -15.27919380451955 -8.135310096893113" fill="#ff6809" stroke="none" /><path d="M 118.5362547648365 109.86951160357373 l 15.407966622627999 8.203874369378036 a38.455915619427024,38.455915619427024 0 0,0 -0.3152554623183088,0.5800345427029532 l -15.264865810694351 -8.467163745555593" fill="#ff6a09" stroke="none" /><line stroke="#e1ed5e" stroke-width="0.3" x1="174.33088141563837" x2="178.70328620479359" y1="141.23008692659167" y2="143.65538615756765" /><path d="M 175.20536237346943 141.71514677278685 a86.0,86.0 0 0,1 -30.301960400862466,31.631185727798858" fill="none" id="id17" stroke="none" /><text fill="#e1ed5e" style="font-size:6.75px; font-family:Arial;" text-anchor="middle"><textPath startOffset="22.145653131862474" xlink:href="#id17">May</textPath></text><path d="M 118.36410011445183 110.18625677009912 l 11.23635113039529 6.232614561011198 a33.84916615939199,33.84916615939199 0 0,0 -0.2862134538931177,0.5057117485856722 l -11.127704311480795 -6.424583079695993" fill="#ff1d03" stroke="none" /><path d="M 118.18653347947321 110.5 l 16.276830152560816 9.3974322701348 a39.79486454026961,39.79486454026961 0 0,0 -0.3466441393447657,0.5886775322548194 l -16.113112303086286 -9.675460970683169" fill="#ff800b" stroke="none" /><path d="M 118.00360718960297 110.81064883170644 l 26.360750307650505 15.828873153868876 a51.74804680144037,51.74804680144037 0 0,0 -0.463840008804386,0.7576477954520118 l -26.085142334390717 -16.279058065445447" fill="#cbff1d" stroke="none" /><path d="M 117.81537515405839 111.11811171558189 l 14.558717814983982 9.085716674664067 a38.16119203052634,38.16119203052634 0 0,0 -0.35159597735113945,0.5527672749355884 l -14.400604146006954 -9.334297624278328" fill="#ff6609" stroke="none" /><path d="M 117.21940702142032 112.02048342749411 l 16.820126582521947 11.741754671461457 a41.51305586734576,41.51305586734576 0 0,0 -0.4129262183128933,0.5808324382241347 l -16.616085265679093 -12.028764336395096" fill="#ff9b0e" stroke="none" /><path d="M 117.01052211995028 112.31430620078461 l 13.798050253374774 9.988724308149997 a38.03410708252365,38.03410708252365 0 0,0 -0.38740089008972517,0.5255837099019176 l -13.62454734370122 -10.224114327320793" fill="#ff6409" stroke="none" /><line stroke="#e1ed5e" stroke-width="0.3" x1="143.1302829299769" x2="145.66735839644613" y1="173.24464959558577" y2="177.55315839532614" /><path d="M 143.63769802327073 174.10635135553383 a86.0,86.0 0 0,1 -40.68552437913181,11.842963189579606" fill="none" id="id18" stroke="none" /><text fill="#e1ed5e" style="font-size:6.75px; font-family:Arial;" text-anchor="middle"><textPath startOffset="21.407464694133747" xlink:href="#id18">June</textPath></text><line stroke="#e1ed5e" stroke-width="0.3" x1="101.45913802915013" x2="101.54496967792366" y1="184.9874750549273" y2="189.98673829345242" /><path d="M 101.47630435890484 185.9873277026323 a86.0,86.0 0 0,1 -42.54439059252881,-10.42667462771756" fill="none" id="id19" stroke="none" /><text fill="#e1ed5e" style="font-size:6.75px; font-family:Arial;" text-anchor="middle"><textPath startOffset="22.145653131862474" xlink:href="#id19">July</textPath></text><line stroke="#e1ed5e" stroke-width="0.3" x1="58.13341422392154" x2="55.67067388415222" y1="173.97424548756322" y2="178.32567169271397" /><path d="M 57.64086615596768 174.84453072859336 a86.0,86.0 0 0,1 -31.369924170532247,-30.572349798747897" fill="none" id="id20" stroke="none" /><text fill="#e1ed5e" style="font-size:6.75px; font-family:Arial;" text-anchor="middle"><textPath startOffset="22.145653131862474" xlink:href="#id20">August</textPath></text><line stroke="#e1ed5e" stroke-width="0.3" x1="26.387840678322732" x2="22.057713659400548" y1="142.50000000000003" y2="145.00000000000006" /><path d="M 25.521815274538298 143.00000000000003 a86.0,86.0 0 0,1 -11.493303480769221,-40.785679425670985" fill="none" id="id21" stroke="none" /><text fill="#e1ed5e" style="font-size:6.75px; font-family:Arial;" text-anchor="middle"><textPath startOffset="21.40746469413373" xlink:href="#id21">September</textPath></text><line stroke="#e1ed5e" stroke-width="0.3" x1="15.003131293944662" x2="10.003315487706104" y1="100.72959589197737" y2="100.7725132973878" /><path d="M 14.003168132696942 100.73817937305945 a86.0,86.0 0 0,1 10.791469493833604,-42.45332614584628" fill="none" id="id22" stroke="none" /><text fill="#e1ed5e" style="font-size:6.75px; font-family:Arial;" text-anchor="middle"><textPath startOffset="22.145653131862435" xlink:href="#id22">October</textPath></text><line stroke="#e1ed5e" stroke-width="0.3" x1="26.387840678322718" x2="22.05771365940052" y1="57.49999999999999" y2="54.99999999999999" /><path d="M 25.521815274538284 56.99999999999999 a86.0,86.0 0 0,1 29.574782752854787,-30.34633250058573" fill="none" id="id23" stroke="none" /><text fill="#e1ed5e" style="font-size:6.75px; font-family:Arial;" text-anchor="middle"><textPath startOffset="21.40746469413373" xlink:href="#id23">November</textPath></text><line stroke="#e1ed5e" stroke-width="0.3" x1="56.869717070023135" x2="54.33264160355391" y1="26.7553504044142" y2="22.446841604673864" /><path d="M 56.362301976729285 25.89364864446614 a86.0,86.0 0 0,1 42.16139366436587,-11.88097634709845" fill="none" id="id24" stroke="none" /><text fill="#e1ed5e" style="font-size:6.75px; font-family:Arial;" text-anchor="middle"><textPath startOffset="22.145653131862474" xlink:href="#id24">December</textPath></text></svg>